<svg width="234" height="112" viewBox="0 0 234 112" fill="none" xmlns="http://www.w3.org/2000/svg">
<g opacity="0.5">
<path fill-rule="evenodd" clip-rule="evenodd" d="M2 0C0.895431 0 0 0.89543 0 2V110C0 111.105 0.89543 112 2 112H232C233.105 112 234 111.105 234 110V2C234 0.895431 233.105 0 232 0H2ZM1 3C1 1.89543 1.89543 1 3 1H231C232.105 1 233 1.89543 233 3V109C233 110.105 232.105 111 231 111H3C1.89543 111 1 110.105 1 109V3Z" fill="#C2D1D9"/>
<mask id="mask0_26_479" style="mask-type:luminance" maskUnits="userSpaceOnUse" x="0" y="0" width="234" height="112">
<path fill-rule="evenodd" clip-rule="evenodd" d="M2 0C0.895431 0 0 0.89543 0 2V110C0 111.105 0.89543 112 2 112H232C233.105 112 234 111.105 234 110V2C234 0.895431 233.105 0 232 0H2ZM1 3C1 1.89543 1.89543 1 3 1H231C232.105 1 233 1.89543 233 3V109C233 110.105 232.105 111 231 111H3C1.89543 111 1 110.105 1 109V3Z" fill="white"/>
</mask>
<g mask="url(#mask0_26_479)">
<rect width="234" height="112" fill="#C2D1D9"/>
</g>
<path fill-rule="evenodd" clip-rule="evenodd" d="M57.4366 69.5589C58.5931 71.5757 60.6654 72.7797 62.9799 72.7797H62.98C65.6047 72.7797 68.0517 71.3599 69.3658 69.0744L72.4405 63.7271H57.131C56.2924 65.6064 56.3943 67.7412 57.4366 69.5589Z" fill="#C2D1D9"/>
<path fill-rule="evenodd" clip-rule="evenodd" d="M83.1222 69.0694C84.4358 71.358 86.8838 72.7797 89.511 72.7797H89.5125C91.8272 72.7797 93.9001 71.5759 95.0575 69.5594C96.1005 67.7422 96.2035 65.6071 95.3666 63.7271H80.0559L83.1222 69.0694Z" fill="#C2D1D9"/>
<path fill-rule="evenodd" clip-rule="evenodd" d="M94.0096 61.2934L88.5117 51.7173H63.9865L58.4886 61.2934H94.0096Z" fill="#C2D1D9"/>
<path fill-rule="evenodd" clip-rule="evenodd" d="M76.5472 39.8418H75.9629C72.7834 39.8418 69.8205 41.5623 68.2304 44.3317L65.3846 49.2839H87.1168L84.2791 44.3307C82.6895 41.5623 79.7266 39.8418 76.5472 39.8418Z" fill="#C2D1D9"/>
<path fill-rule="evenodd" clip-rule="evenodd" d="M105.92 60.0021C105.92 58.0883 106.762 56.6764 108.353 56.049C109.07 55.7666 110.318 55.6097 112.095 55.6097H113.031C113.811 55.6097 114.497 55.6411 115.121 55.7039V53.9155C115.121 51.6253 113.967 50.8409 111.347 50.8409C110.255 50.8409 109.195 50.9978 108.134 51.3115C107.667 51.437 107.417 51.437 107.323 51.0605L107.168 50.4017C107.043 50.0252 107.136 49.8056 107.511 49.7115C108.852 49.3036 110.193 49.084 111.503 49.084C115.495 49.084 117.148 50.4331 117.148 53.6959V64.4258C117.148 64.6768 117.086 64.7395 116.805 64.7395H115.776C115.495 64.7395 115.37 64.6454 115.37 64.4258L115.308 63.3591H115.246C114.559 64.4571 113.468 65.0219 111.939 65.0219H110.38C109.008 65.0219 107.76 64.614 107.043 63.8924C106.294 63.1395 105.92 62.1669 105.92 60.9433V60.0021ZM107.978 60.6923C107.978 61.6649 108.197 62.3237 108.633 62.7316C109.039 63.1081 109.663 63.2963 110.536 63.2963H111.815C113.904 63.2963 115.121 62.1669 115.121 60.0335V57.4294C114.622 57.3667 113.998 57.3353 113.249 57.3353H111.503C110.193 57.3353 109.288 57.5549 108.758 57.9628C108.228 58.3706 107.978 59.0608 107.978 60.0335V60.6923Z" fill="#C2D1D9"/>
<path fill-rule="evenodd" clip-rule="evenodd" d="M121.39 43.8446C121.39 43.625 121.514 43.4995 121.764 43.4995H123.043C123.292 43.4995 123.417 43.625 123.417 43.8446V60.6296C123.417 61.7591 123.448 62.1356 123.697 62.6062C123.853 62.8258 124.228 62.9513 124.82 62.9513H125.662C125.85 62.9513 126.037 62.9826 126.037 63.2964V64.3631C126.037 64.6141 125.943 64.7396 125.725 64.7396H124.54C123.417 64.7396 122.606 64.4886 122.138 64.018C121.639 63.4846 121.39 62.5121 121.39 61.1316V43.8446Z" fill="#C2D1D9"/>
<path fill-rule="evenodd" clip-rule="evenodd" d="M129.093 45.2251C129.093 44.2211 129.655 43.7505 130.528 43.7505H130.653C131.557 43.7505 132.025 44.2525 132.025 45.2251V45.4133C132.025 46.4173 131.495 46.9193 130.653 46.9193H130.528C129.499 46.9193 129.093 46.4487 129.093 45.4133V45.2251ZM129.561 49.7115C129.561 49.4919 129.686 49.3664 129.935 49.3664H131.214C131.464 49.3664 131.588 49.4919 131.588 49.7115V64.4886C131.588 64.6455 131.495 64.7396 131.308 64.7396H129.811C129.655 64.7396 129.561 64.6455 129.561 64.4886V49.7115Z" fill="#C2D1D9"/>
<path fill-rule="evenodd" clip-rule="evenodd" d="M135.549 56.4882C135.549 50.935 137.389 49.084 141.537 49.084C143.533 49.084 144.937 49.7115 145.779 50.9664H145.841L145.997 49.7428C146.029 49.4918 146.184 49.3664 146.465 49.3664H147.214C147.557 49.3664 147.65 49.4291 147.65 49.7742V69.9476C147.65 70.1672 147.557 70.2927 147.339 70.2927H145.935C145.717 70.2927 145.623 70.1672 145.623 69.9476V63.3591H145.561C144.687 64.4571 143.315 65.0219 141.444 65.0219C137.202 65.0219 135.549 62.9825 135.549 57.9628V56.4882ZM137.607 57.8059C137.607 59.9393 137.951 61.4139 138.637 62.1982C139.292 62.9512 140.165 63.265 141.693 63.265C144.188 63.265 145.623 61.9786 145.623 59.5001V54.8568C145.623 52.3155 144.188 50.8409 141.569 50.8409C140.196 50.8409 139.385 51.1233 138.761 51.7821C137.982 52.6292 137.607 54.292 137.607 56.7705V57.8059Z" fill="#C2D1D9"/>
<path fill-rule="evenodd" clip-rule="evenodd" d="M151.705 49.8682C151.705 49.5858 151.892 49.3662 152.141 49.3662H153.295C153.576 49.3662 153.732 49.5231 153.732 49.8054V60.0647C153.732 61.3196 153.95 62.0099 154.543 62.5118C155.073 63.0138 156.009 63.2648 157.35 63.2648C158.629 63.2648 159.596 62.9824 160.219 62.3863C160.75 61.8844 160.937 61.3196 160.937 60.0647V49.774C160.937 49.5231 161.093 49.3662 161.311 49.3662H162.621C162.839 49.3662 162.964 49.4917 162.964 49.774V60.3157C162.964 61.9157 162.496 63.1079 161.592 63.8923C160.687 64.6766 159.471 65.0217 157.35 65.0217C155.416 65.0217 154.013 64.6453 153.108 63.8923C152.173 63.1079 151.705 61.9157 151.705 60.3157V49.8682Z" fill="#C2D1D9"/>
<path fill-rule="evenodd" clip-rule="evenodd" d="M166.208 60.0021C166.208 58.0883 167.05 56.6764 168.641 56.049C169.358 55.7666 170.605 55.6097 172.383 55.6097H173.319C174.099 55.6097 174.785 55.6411 175.409 55.7039V53.9155C175.409 51.6253 174.255 50.8409 171.635 50.8409C170.543 50.8409 169.483 50.9978 168.422 51.3115C167.954 51.437 167.705 51.437 167.611 51.0605L167.455 50.4017C167.331 50.0252 167.424 49.8056 167.798 49.7115C169.14 49.3036 170.481 49.084 171.791 49.084C175.783 49.084 177.436 50.4331 177.436 53.6959V64.4258C177.436 64.6768 177.374 64.7395 177.093 64.7395H176.064C175.783 64.7395 175.658 64.6454 175.658 64.4258L175.596 63.3591H175.533C174.847 64.4571 173.756 65.0219 172.227 65.0219H170.668C169.296 65.0219 168.048 64.614 167.331 63.8924C166.582 63.1395 166.208 62.1669 166.208 60.9433V60.0021ZM168.266 60.6923C168.266 61.6649 168.485 62.3237 168.921 62.7316C169.327 63.1081 169.95 63.2963 170.824 63.2963H172.103C174.192 63.2963 175.409 62.1669 175.409 60.0335V57.4294C174.91 57.3667 174.286 57.3353 173.537 57.3353H171.791C170.481 57.3353 169.576 57.5549 169.046 57.9628C168.516 58.3706 168.266 59.0608 168.266 60.0335V60.6923Z" fill="#C2D1D9"/>
</g>
</svg>
