<svg width="720" height="543" viewBox="0 0 720 543" fill="none" xmlns="http://www.w3.org/2000/svg">
<g clip-path="url(#clip0_3_113)">
<rect width="720" height="543" rx="2" fill="#F2F5F7"/>
<rect x="0.5" y="0.5" width="719" height="542" rx="1.5" stroke="#C2D1D9"/>
</g>
<g clip-path="url(#clip1_3_113)">
<path d="M12 11L707.131 530.931" stroke="#C2D1D9"/>
<path d="M707.131 11L12 530.931" stroke="#C2D1D9"/>
</g>
<rect x="326" y="243" width="68" height="56" rx="4" fill="#F2F5F7"/>
<path fill-rule="evenodd" clip-rule="evenodd" d="M390 243H330C327.791 243 326 244.791 326 247V295C326 297.209 327.791 299 330 299H390C392.209 299 394 297.209 394 295V247C394 244.791 392.209 243 390 243ZM330 295V247H390V295H330Z" fill="#C2D1D9"/>
<path fill-rule="evenodd" clip-rule="evenodd" d="M337 259.5C337 263.642 340.358 267 344.5 267C348.642 267 352 263.642 352 259.5C352 255.358 348.642 252 344.5 252C340.358 252 337 255.358 337 259.5ZM348 259.5C348 261.433 346.433 263 344.5 263C342.567 263 341 261.433 341 259.5C341 257.567 342.567 256 344.5 256C346.433 256 348 257.567 348 259.5Z" fill="#C2D1D9"/>
<path d="M340.408 290.42C339.624 291.198 338.357 291.193 337.58 290.408C336.802 289.624 336.807 288.357 337.592 287.58L354.041 271.272L363.313 279.336C364.146 280.061 364.234 281.324 363.509 282.158C362.784 282.991 361.521 283.079 360.687 282.354L354.219 276.728L340.408 290.42Z" fill="#C2D1D9"/>
<path d="M355.414 290.414C354.633 291.195 353.367 291.195 352.586 290.414C351.805 289.633 351.805 288.367 352.586 287.586L378.908 261.261L393.319 273.905C394.149 274.634 394.232 275.897 393.503 276.728C392.775 277.558 391.511 277.64 390.681 276.912L379.087 266.739L355.414 290.414Z" fill="#C2D1D9"/>
<defs>
<clipPath id="clip0_3_113">
<rect width="720" height="543" fill="white"/>
</clipPath>
<clipPath id="clip1_3_113">
<rect width="696" height="521" fill="white" transform="translate(12 11)"/>
</clipPath>
</defs>
</svg>
