<svg width="360" height="172" viewBox="0 0 360 172" fill="none" xmlns="http://www.w3.org/2000/svg">
<rect width="360" height="172" rx="2" fill="white"/>
<path fill-rule="evenodd" clip-rule="evenodd" d="M2 0C0.895431 0 0 0.895432 0 2V170C0 171.105 0.895436 172 2.00001 172H358C359.105 172 360 171.105 360 170V2C360 0.895431 359.105 0 358 0H2ZM1 3C1 1.89543 1.89542 1 2.99999 1H357C358.105 1 359 1.89543 359 3V169C359 170.105 358.105 171 357 171H3C1.89543 171 1 170.105 1 169V3Z" fill="#C2D1D9"/>
<mask id="mask0_26_485" style="mask-type:luminance" maskUnits="userSpaceOnUse" x="0" y="0" width="360" height="172">
<path fill-rule="evenodd" clip-rule="evenodd" d="M2 0C0.895431 0 0 0.895432 0 2V170C0 171.105 0.895436 172 2.00001 172H358C359.105 172 360 171.105 360 170V2C360 0.895431 359.105 0 358 0H2ZM1 3C1 1.89543 1.89542 1 2.99999 1H357C358.105 1 359 1.89543 359 3V169C359 170.105 358.105 171 357 171H3C1.89543 171 1 170.105 1 169V3Z" fill="white"/>
</mask>
<g mask="url(#mask0_26_485)">
<rect width="360" height="172" fill="#C2D1D9"/>
</g>
<path fill-rule="evenodd" clip-rule="evenodd" d="M105 108.474V65.198H131.403V74.7005H116.453V82.2049H130.547V91.4667H116.453V108.474H105ZM135.318 108.474V78.6342H145.216V85.6656C146.241 83.0929 147.627 81.1758 149.394 79.8957C151.163 78.6135 153.303 77.9682 155.814 77.9682C156.227 77.9682 156.649 77.9786 157.07 78.0076C157.492 78.0388 157.913 78.0906 158.347 78.1508L157.322 87.7135C156.7 87.5018 156.076 87.3504 155.473 87.2508C154.861 87.1574 154.279 87.1076 153.706 87.1076C151.163 87.1076 149.206 87.894 147.817 89.4583C146.441 91.0227 145.749 93.2407 145.749 96.1163V108.474H135.318ZM180.882 89.7115C180.679 88.0164 180.037 86.6532 178.952 85.6242C177.857 84.5971 176.52 84.0805 174.923 84.0805C173.216 84.0805 171.85 84.5453 170.834 85.4851C169.829 86.4229 169.156 87.8359 168.815 89.7115H180.882ZM191.188 95.6412H168.583C168.604 97.9442 169.195 99.7181 170.352 100.969C171.517 102.218 173.154 102.845 175.274 102.845C176.871 102.845 178.208 102.544 179.303 101.948C180.388 101.343 181.223 100.455 181.795 99.2741L189.68 102.463C188.736 104.752 187.07 106.517 184.68 107.758C182.277 108.999 179.342 109.625 175.867 109.625C170.685 109.625 166.523 108.181 163.399 105.297C160.265 102.401 158.698 98.5977 158.698 93.8672C158.698 89.2177 160.265 85.3524 163.389 82.2755C166.523 79.1986 170.482 77.6653 175.264 77.6653C180.188 77.6653 184.076 79.2193 186.919 82.3356C189.763 85.454 191.188 89.7218 191.188 95.137V95.6412ZM192.624 105.994L194.804 97.9442C196.342 99.2845 198.022 100.312 199.856 101.04C201.697 101.756 203.545 102.121 205.404 102.121C206.721 102.121 207.725 101.907 208.409 101.484C209.101 101.06 209.442 100.444 209.442 99.6372C209.442 98.3176 208.055 97.328 205.282 96.6723C204.38 96.4607 203.646 96.2678 203.103 96.1163C199.958 95.249 197.687 94.11 196.261 92.6971C194.844 91.2945 194.131 89.4583 194.131 87.2197C194.131 84.315 195.216 82.0037 197.387 80.2692C199.557 78.5326 202.491 77.6653 206.198 77.6653C208.105 77.6653 210.045 77.8873 212.014 78.3313C213.981 78.7774 216.004 79.4621 218.062 80.3895L215.882 87.6533C214.496 86.7051 213.081 85.9769 211.64 85.4851C210.206 84.9893 208.781 84.7465 207.343 84.7465C206.146 84.7465 205.243 84.9395 204.632 85.3129C204.018 85.6864 203.714 86.23 203.714 86.9354C203.714 87.9956 205.09 88.894 207.843 89.6305C208.477 89.8007 208.95 89.9335 209.262 90.0144C212.888 91.0538 215.411 92.2821 216.835 93.6847C218.255 95.0997 218.965 97.0064 218.965 99.4048C218.965 102.453 217.802 104.924 215.461 106.799C213.13 108.687 210.035 109.625 206.198 109.625C203.584 109.625 201.162 109.322 198.922 108.727C196.683 108.121 194.583 107.214 192.624 105.994ZM222.753 108.474V62.6543H233.061V78.7359C233.061 79.794 233.03 80.7837 232.973 81.6904C232.911 82.5991 232.83 83.4166 232.71 84.1428C234.024 81.9124 235.572 80.2795 237.351 79.2297C239.14 78.1902 241.271 77.6653 243.732 77.6653C245.66 77.6653 247.366 77.9786 248.864 78.5948C250.362 79.2193 251.586 80.1073 252.524 81.2775C253.315 82.2755 253.869 83.5058 254.199 84.9395C254.53 86.3814 254.702 88.5309 254.702 91.3858V108.474H244.213V92.4854C244.213 90.0953 243.823 88.3691 243.048 87.2798C242.275 86.2009 241.037 85.6553 239.331 85.6553C237.151 85.6553 235.564 86.4624 234.557 88.0765C233.564 89.6907 233.061 92.3132 233.061 95.9462V108.474H222.753Z" fill="#C2D1D9"/>
<path fill-rule="evenodd" clip-rule="evenodd" d="M176.012 73.4847C179.024 67.7791 183.26 65.5985 190.624 65.7313C187.527 73.7607 183.194 76.7483 174.617 76.5927C173.654 73.6113 171.943 71.0303 169.088 69.0613C169.796 67.9824 170.505 66.9035 171.216 65.8226C173.774 68.2335 175.204 70.8124 176.012 73.4847Z" fill="#C2D1D9"/>
</svg>
