<svg width="757" height="499" viewBox="0 0 757 499" fill="none" xmlns="http://www.w3.org/2000/svg">
<path fill-rule="evenodd" clip-rule="evenodd" d="M297.528 155.59C340.541 155.59 375.528 120.763 375.528 77.9619C375.528 35.1328 340.541 0.306274 297.528 0.306274C254.515 0.306274 219.528 35.1328 219.528 77.9479C219.528 120.763 254.515 155.59 297.528 155.59ZM297.528 28.1898C325.092 28.1898 347.516 50.5245 347.516 77.9479C347.516 105.371 325.092 127.706 297.528 127.706C269.964 127.706 247.54 105.385 247.54 77.9619C247.54 50.5384 269.964 28.1898 297.528 28.1898ZM12.1766 529.516C9.52468 531.836 6.23074 532.975 2.96473 532.975C-0.901457 532.975 -4.75368 531.392 -7.51724 528.266C-12.6117 522.5 -12.0534 513.72 -6.26108 508.649L414.779 124.179C420.306 119.344 428.653 119.608 433.873 124.79L500.072 190.684L636.771 41.6554C639.269 38.9324 642.758 37.307 646.457 37.1402C650.128 37.0569 653.771 38.2933 656.506 40.7802L823.994 193.601C829.689 198.783 830.066 207.578 824.86 213.232C819.654 218.886 810.819 219.275 805.138 214.093L647.964 70.6776L519.822 210.356L586.915 277.139C592.372 282.571 592.372 291.351 586.915 296.783C581.458 302.216 572.637 302.216 567.179 296.783L423.391 153.673L12.1766 529.516Z" fill="#C2D1D9"/>
</svg>
