<svg width="360" height="271" viewBox="0 0 360 271" fill="none" xmlns="http://www.w3.org/2000/svg">
<g clip-path="url(#clip0_24_165)">
<rect width="360" height="271" rx="2" fill="#F2F5F7"/>
<rect x="0.5" y="0.5" width="359" height="270" rx="1.5" stroke="#DADADA"/>
</g>
<g clip-path="url(#clip1_24_165)">
<path d="M12 11L347.58 259.489" stroke="#DADADA"/>
<path d="M347.58 11L12 259.489" stroke="#DADADA"/>
</g>
<rect x="146" y="107" width="68" height="56" rx="4" fill="#F2F5F7"/>
<path fill-rule="evenodd" clip-rule="evenodd" d="M210 107H150C147.791 107 146 108.791 146 111V159C146 161.209 147.791 163 150 163H210C212.209 163 214 161.209 214 159V111C214 108.791 212.209 107 210 107ZM150 159V111H210V159H150Z" fill="#DADADA"/>
<path fill-rule="evenodd" clip-rule="evenodd" d="M157 123.5C157 127.642 160.358 131 164.5 131C168.642 131 172 127.642 172 123.5C172 119.358 168.642 116 164.5 116C160.358 116 157 119.358 157 123.5ZM168 123.5C168 125.433 166.433 127 164.5 127C162.567 127 161 125.433 161 123.5C161 121.567 162.567 120 164.5 120C166.433 120 168 121.567 168 123.5Z" fill="#DADADA"/>
<path d="M160.408 154.42C159.624 155.198 158.357 155.193 157.58 154.408C156.802 153.624 156.807 152.357 157.592 151.58L174.041 135.272L183.313 143.336C184.146 144.061 184.234 145.324 183.509 146.158C182.784 146.991 181.521 147.079 180.687 146.354L174.219 140.728L160.408 154.42Z" fill="#DADADA"/>
<path d="M175.414 154.414C174.633 155.195 173.367 155.195 172.586 154.414C171.805 153.633 171.805 152.367 172.586 151.586L198.908 125.261L213.319 137.905C214.149 138.634 214.232 139.897 213.503 140.728C212.775 141.558 211.511 141.64 210.681 140.912L199.087 130.739L175.414 154.414Z" fill="#DADADA"/>
<defs>
<clipPath id="clip0_24_165">
<rect width="360" height="271" fill="white"/>
</clipPath>
<clipPath id="clip1_24_165">
<rect width="336" height="249" fill="white" transform="translate(12 11)"/>
</clipPath>
</defs>
</svg>
