<svg width="234" height="112" viewBox="0 0 234 112" fill="none" xmlns="http://www.w3.org/2000/svg">
<path fill-rule="evenodd" clip-rule="evenodd" d="M2 0C0.895431 0 0 0.89543 0 2V110C0 111.105 0.89543 112 2 112H232C233.105 112 234 111.105 234 110V2C234 0.895431 233.105 0 232 0H2ZM1 3C1 1.89543 1.89543 1 3 1H231C232.105 1 233 1.89543 233 3V109C233 110.105 232.105 111 231 111H3C1.89543 111 1 110.105 1 109V3Z" fill="#C2D1D9"/>
<mask id="mask0_26_483" style="mask-type:luminance" maskUnits="userSpaceOnUse" x="0" y="0" width="234" height="112">
<path fill-rule="evenodd" clip-rule="evenodd" d="M2 0C0.895431 0 0 0.89543 0 2V110C0 111.105 0.89543 112 2 112H232C233.105 112 234 111.105 234 110V2C234 0.895431 233.105 0 232 0H2ZM1 3C1 1.89543 1.89543 1 3 1H231C232.105 1 233 1.89543 233 3V109C233 110.105 232.105 111 231 111H3C1.89543 111 1 110.105 1 109V3Z" fill="white"/>
</mask>
<g mask="url(#mask0_26_483)">
<rect width="234" height="112" fill="#C2D1D9"/>
</g>
</svg>
